<svg xmlns="http://www.w3.org/2000/svg" viewBox="467.29 344.95 945.14 208.91" fill="none">
<path d="M573.18,517.17 C567.53,516.96 561.93,517.26 556.29,517.15 C545.55,516.95 534.62,517.49 523.92,516.58 C519.78,516.23 514.82,515.18 510.91,513.78 C507.06,512.12 502.69,510.09 499.15,507.85 C491.80,503.20 484.28,494.48 480.39,486.95 C472.02,470.80 471.29,451.71 478.81,435.14 C480.37,431.71 482.44,428.78 484.41,425.60 C486.94,420.95 489.57,416.63 492.21,412.10 L505.36,389.75 L510.71,380.73 C512.27,378.11 514.18,374.64 516.04,372.24 C524.27,361.60 536.15,354.03 549.27,351.18 C559.51,348.95 570.14,349.34 580.46,349.37 L605.82,349.37 L620.03,349.37 C621.78,349.37 625.56,349.26 627.09,349.43 C628.14,349.42 629.18,349.44 630.23,349.50 C629.65,350.28 629.18,351.20 628.71,352.05 C627.01,355.20 624.90,358.31 623.22,361.51 C622.52,362.85 621.26,364.38 620.46,365.74 C618.69,368.34 617.37,371.53 615.64,374.13 C613.17,377.85 611.01,381.44 608.82,385.32 L565.65,385.42 C556.32,385.48 548.39,388.15 541.75,394.94 C540.40,396.31 539.20,397.81 538.16,399.42 C536.91,401.37 535.92,403.65 534.70,405.67 L520.70,429.24 L513.73,441.01 C512.16,443.61 510.35,446.11 509.17,448.94 C507.78,452.36 507.25,456.30 507.24,459.96 C507.22,469.12 511.66,476.56 519.48,481.21 C526.50,485.38 532.52,485.02 540.28,485.03 C544.73,485.05 549.17,485.04 553.62,484.98 C558.23,492.34 562.81,500.06 567.33,507.50 C568.92,510.11 572.10,514.45 573.18,517.17" fill="white"/>
<path d="M633.67,415.55 C641.95,415.61 650.24,415.62 658.52,415.59 C664.05,415.59 669.77,415.68 675.28,415.61 C672.14,421.07 668.89,426.46 665.53,431.79 C664.49,433.45 663.23,435.09 662.22,436.73 L629.61,490.11 C628.20,492.37 626.62,494.53 625.22,496.76 C617.08,509.74 609.11,522.83 601.32,536.02 C599.14,539.27 597.06,542.77 594.97,546.10 C594.30,547.17 593.61,548.68 592.92,549.86 C591.86,547.88 590.29,545.95 589.23,543.97 C586.61,538.95 583.14,534.39 580.54,529.37 C578.38,525.23 575.37,521.45 573.39,517.24 C573.41,515.26 577.41,509.34 578.59,507.37 L587.02,493.19 L618.97,440.17 C623.82,432.10 629.30,423.81 633.67,415.55" fill="white"/>
<path d="M593.10,449.65 C592.55,449.09 590.96,448.04 590.22,447.40 C587.46,445.08 585.09,442.34 583.19,439.28 C579.91,433.96 579.02,427.20 579.80,421.06 C580.09,418.73 580.70,416.31 581.25,414.03 C578.41,418.99 575.32,421.39 570.39,424.33 C562.97,428.77 554.41,428.13 546.31,425.78 C550.01,429.12 554.64,433.44 556.84,437.93 C559.34,443.03 560.09,450.17 559.04,455.73 C558.68,457.65 558.09,459.41 557.48,461.26 C560.59,457.20 562.44,455.00 566.87,452.17 C573.82,447.72 580.47,446.94 588.52,448.49 C590.10,448.79 591.54,449.27 593.10,449.65" fill="white"/>
<path d="M798.56,391.96 C788.68,391.96 780.19,394.24 773.10,398.80 C766.00,403.36 760.56,409.69 756.76,417.80 C752.96,425.90 751.06,435.40 751.06,446.30 C751.06,457.32 753.02,466.75 756.95,474.61 C761.00,482.46 766.64,488.48 773.86,492.66 C781.08,496.71 789.37,498.74 798.75,498.74 C804.70,498.74 810.21,497.98 815.28,496.46 C820.34,494.94 824.78,492.59 828.58,489.43 C832.38,486.13 835.35,481.95 837.51,476.89 C839.79,471.82 840.93,465.87 840.93,459.03 L840.93,446.11 L849.67,455.04 L794.95,455.04 L794.95,438.51 L858.41,438.51 L858.41,514.32 L842.83,514.32 L840.93,488.86 L843.40,491.90 C841.37,496.46 838.14,500.57 833.71,504.25 C829.27,507.92 823.95,510.90 817.75,513.18 C811.54,515.33 804.70,516.41 797.23,516.41 C784.31,516.41 772.91,513.49 763.03,507.67 C753.15,501.71 745.42,493.48 739.85,482.97 C734.27,472.45 731.49,460.10 731.49,445.92 C731.49,431.98 734.27,419.63 739.85,408.87 C745.55,398.10 753.46,389.68 763.60,383.60 C773.73,377.52 785.51,374.48 798.94,374.48 C808.94,374.48 818.06,376.31 826.30,379.99 C834.53,383.53 841.31,388.60 846.63,395.19 C852.07,401.65 855.49,409.31 856.89,418.18 L837.13,418.18 C834.59,409.44 829.78,402.91 822.69,398.61 C815.72,394.17 807.68,391.96 798.56,391.96 M900.14,514.13 L882.28,514.13 L882.28,374.29 L900.14,374.29 L900.14,514.13 M926.43,514.13 L926.43,421.22 L944.29,421.22 L944.29,514.13 L926.43,514.13 M935.17,399.18 C932.01,399.18 929.22,398.04 926.81,395.76 C924.53,393.35 923.39,390.56 923.39,387.40 C923.39,384.10 924.53,381.32 926.81,379.04 C929.22,376.76 932.01,375.62 935.17,375.62 C938.47,375.62 941.25,376.76 943.53,379.04 C945.81,381.32 946.95,384.10 946.95,387.40 C946.95,390.56 945.81,393.35 943.53,395.76 C941.25,398.04 938.47,399.18 935.17,399.18 M988.08,514.13 L970.22,514.13 L970.22,421.22 L986.37,421.22 L988.27,435.47 C991.18,430.15 995.36,426.03 1000.81,423.12 C1006.38,420.08 1012.46,418.56 1019.05,418.56 C1031.21,418.56 1040.20,422.04 1046.03,429.01 C1051.86,435.97 1054.77,445.41 1054.77,457.32 L1054.77,514.13 L1036.91,514.13 L1036.91,461.31 C1036.91,451.93 1034.88,445.22 1030.83,441.17 C1026.78,436.99 1021.33,434.90 1014.49,434.90 C1006.13,434.90 999.61,437.62 994.92,443.07 C990.36,448.51 988.08,455.80 988.08,464.92 L988.08,514.13 M1069.63,421.22 L1123.97,421.22 L1123.97,436.23 L1069.63,436.23 L1069.63,421.22 M1105.73,514.13 L1087.87,514.13 L1087.87,392.15 L1105.73,392.15 L1105.73,514.13 M1166.03,514.13 L1128.60,421.22 L1147.60,421.22 L1167.93,473.09 C1169.57,477.39 1171.03,481.51 1172.30,485.44 C1173.56,489.24 1174.58,492.53 1175.34,495.32 C1176.22,492.15 1177.30,488.67 1178.57,484.87 C1179.96,481.07 1181.48,477.14 1183.13,473.09 L1203.84,421.22 L1222.46,421.22 L1183.70,514.13 L1166.03,514.13 M1272.49,516.41 C1263.50,516.41 1255.52,514.38 1248.55,510.33 C1241.58,506.15 1236.14,500.45 1232.21,493.23 C1228.28,485.88 1226.32,477.39 1226.32,467.77 C1226.32,458.01 1228.22,449.46 1232.02,442.12 C1235.95,434.77 1241.27,429.01 1247.98,424.83 C1254.82,420.65 1262.74,418.56 1271.73,418.56 C1280.60,418.56 1288.26,420.46 1294.72,424.26 C1301.31,428.06 1306.37,433.38 1309.92,440.22 C1313.59,447.06 1315.43,455.10 1315.43,464.35 L1315.43,471.00 L1235.82,471.19 L1236.20,459.22 L1297.57,459.22 C1297.57,451.49 1295.23,445.28 1290.54,440.60 C1285.85,435.91 1279.58,433.57 1271.73,433.57 C1265.78,433.57 1260.65,434.90 1256.34,437.56 C1252.16,440.09 1248.93,443.89 1246.65,448.96 C1244.50,453.90 1243.42,459.85 1243.42,466.82 C1243.42,477.96 1245.95,486.58 1251.02,492.66 C1256.09,498.61 1263.37,501.59 1272.87,501.59 C1279.84,501.59 1285.54,500.19 1289.97,497.41 C1294.40,494.62 1297.38,490.57 1298.90,485.25 L1315.62,485.25 C1313.34,495.13 1308.46,502.79 1300.99,508.24 C1293.52,513.68 1284.02,516.41 1272.49,516.41 M1341.17,514.13 L1320.65,514.13 L1353.14,468.15 L1320.84,421.22 L1341.55,421.22 L1365.11,455.80 L1388.10,421.22 L1408.43,421.22 L1376.13,468.15 L1407.86,514.13 L1387.15,514.13 L1363.97,480.12 L1341.17,514.13" fill="white"/>
</svg>
