<svg xmlns="http://www.w3.org/2000/svg" viewBox="467.29 344.95 211.99 208.91" fill="none">
<path d="M573.18,517.17 C567.53,516.96 561.93,517.26 556.29,517.15 C545.55,516.95 534.62,517.49 523.92,516.58 C519.78,516.23 514.82,515.18 510.91,513.78 C507.06,512.12 502.69,510.09 499.15,507.85 C491.80,503.20 484.28,494.48 480.39,486.95 C472.02,470.80 471.29,451.71 478.81,435.14 C480.37,431.71 482.44,428.78 484.41,425.60 C486.94,420.95 489.57,416.63 492.21,412.10 L505.36,389.75 L510.71,380.73 C512.27,378.11 514.18,374.64 516.04,372.24 C524.27,361.60 536.15,354.03 549.27,351.18 C559.51,348.95 570.14,349.34 580.46,349.37 L605.82,349.37 L620.03,349.37 C621.78,349.37 625.56,349.26 627.09,349.43 C628.14,349.42 629.18,349.44 630.23,349.50 C629.65,350.28 629.18,351.20 628.71,352.05 C627.01,355.20 624.90,358.31 623.22,361.51 C622.52,362.85 621.26,364.38 620.46,365.74 C618.69,368.34 617.37,371.53 615.64,374.13 C613.17,377.85 611.01,381.44 608.82,385.32 L565.65,385.42 C556.32,385.48 548.39,388.15 541.75,394.94 C540.40,396.31 539.20,397.81 538.16,399.42 C536.91,401.37 535.92,403.65 534.70,405.67 L520.70,429.24 L513.73,441.01 C512.16,443.61 510.35,446.11 509.17,448.94 C507.78,452.36 507.25,456.30 507.24,459.96 C507.22,469.12 511.66,476.56 519.48,481.21 C526.50,485.38 532.52,485.02 540.28,485.03 C544.73,485.05 549.17,485.04 553.62,484.98 C558.23,492.34 562.81,500.06 567.33,507.50 C568.92,510.11 572.10,514.45 573.18,517.17" fill="white"/>
<path d="M633.67,415.55 C641.95,415.61 650.24,415.62 658.52,415.59 C664.05,415.59 669.77,415.68 675.28,415.61 C672.14,421.07 668.89,426.46 665.53,431.79 C664.49,433.45 663.23,435.09 662.22,436.73 L629.61,490.11 C628.20,492.37 626.62,494.53 625.22,496.76 C617.08,509.74 609.11,522.83 601.32,536.02 C599.14,539.27 597.06,542.77 594.97,546.10 C594.30,547.17 593.61,548.68 592.92,549.86 C591.86,547.88 590.29,545.95 589.23,543.97 C586.61,538.95 583.14,534.39 580.54,529.37 C578.38,525.23 575.37,521.45 573.39,517.24 C573.41,515.26 577.41,509.34 578.59,507.37 L587.02,493.19 L618.97,440.17 C623.82,432.10 629.30,423.81 633.67,415.55" fill="white"/>
<path d="M593.10,449.65 C592.55,449.09 590.96,448.04 590.22,447.40 C587.46,445.08 585.09,442.34 583.19,439.28 C579.91,433.96 579.02,427.20 579.80,421.06 C580.09,418.73 580.70,416.31 581.25,414.03 C578.41,418.99 575.32,421.39 570.39,424.33 C562.97,428.77 554.41,428.13 546.31,425.78 C550.01,429.12 554.64,433.44 556.84,437.93 C559.34,443.03 560.09,450.17 559.04,455.73 C558.68,457.65 558.09,459.41 557.48,461.26 C560.59,457.20 562.44,455.00 566.87,452.17 C573.82,447.72 580.47,446.94 588.52,448.49 C590.10,448.79 591.54,449.27 593.10,449.65" fill="white"/>
</svg>
